<mxfile host="Electron" modified="2023-10-17T06:41:15.358Z" agent="Mozilla/5.0 (Windows NT 10.0; Win64; x64) AppleWebKit/537.36 (KHTML, like Gecko) draw.io/21.6.5 Chrome/114.0.5735.243 Electron/25.3.1 Safari/537.36" etag="bQUfrob7OAa8yCeNLSmS" version="21.6.5" type="device">
  <diagram name="半自动" id="m4R9XPH7AfmONvim3VQl">
    <mxGraphModel dx="3341" dy="2162" grid="1" gridSize="10" guides="1" tooltips="1" connect="1" arrows="1" fold="1" page="1" pageScale="1" pageWidth="827" pageHeight="1169" math="0" shadow="0">
      <root>
        <mxCell id="0" />
        <mxCell id="1" parent="0" />
        <mxCell id="7QBjUaj-Z8u73ffwnyCX-3" style="edgeStyle=orthogonalEdgeStyle;rounded=0;orthogonalLoop=1;jettySize=auto;html=1;exitX=0.5;exitY=1;exitDx=0;exitDy=0;entryX=0.5;entryY=0;entryDx=0;entryDy=0;" edge="1" parent="1" source="7QBjUaj-Z8u73ffwnyCX-1" target="7QBjUaj-Z8u73ffwnyCX-2">
          <mxGeometry relative="1" as="geometry" />
        </mxCell>
        <mxCell id="7QBjUaj-Z8u73ffwnyCX-1" value="main" style="rounded=1;whiteSpace=wrap;html=1;fontSize=50;fontFamily=Consolas, Monaco, &quot;Courier New&quot;, monospace, Consolas, &quot;Courier New&quot;, monospace;fillColor=#d5e8d4;strokeColor=#82b366;" vertex="1" parent="1">
          <mxGeometry x="-550" width="220" height="140" as="geometry" />
        </mxCell>
        <mxCell id="7QBjUaj-Z8u73ffwnyCX-14" style="edgeStyle=orthogonalEdgeStyle;rounded=0;orthogonalLoop=1;jettySize=auto;html=1;exitX=0.5;exitY=1;exitDx=0;exitDy=0;entryX=0.5;entryY=0;entryDx=0;entryDy=0;" edge="1" parent="1" source="7QBjUaj-Z8u73ffwnyCX-2" target="7QBjUaj-Z8u73ffwnyCX-5">
          <mxGeometry relative="1" as="geometry" />
        </mxCell>
        <mxCell id="7QBjUaj-Z8u73ffwnyCX-15" style="edgeStyle=orthogonalEdgeStyle;rounded=0;orthogonalLoop=1;jettySize=auto;html=1;exitX=0.5;exitY=1;exitDx=0;exitDy=0;entryX=0.5;entryY=0;entryDx=0;entryDy=0;" edge="1" parent="1" source="7QBjUaj-Z8u73ffwnyCX-2" target="7QBjUaj-Z8u73ffwnyCX-10">
          <mxGeometry relative="1" as="geometry" />
        </mxCell>
        <mxCell id="7QBjUaj-Z8u73ffwnyCX-16" style="edgeStyle=orthogonalEdgeStyle;rounded=0;orthogonalLoop=1;jettySize=auto;html=1;exitX=0.5;exitY=1;exitDx=0;exitDy=0;" edge="1" parent="1" source="7QBjUaj-Z8u73ffwnyCX-2" target="7QBjUaj-Z8u73ffwnyCX-11">
          <mxGeometry relative="1" as="geometry" />
        </mxCell>
        <mxCell id="7QBjUaj-Z8u73ffwnyCX-17" style="edgeStyle=orthogonalEdgeStyle;rounded=0;orthogonalLoop=1;jettySize=auto;html=1;exitX=0.5;exitY=1;exitDx=0;exitDy=0;entryX=0.5;entryY=0;entryDx=0;entryDy=0;" edge="1" parent="1" source="7QBjUaj-Z8u73ffwnyCX-2" target="7QBjUaj-Z8u73ffwnyCX-12">
          <mxGeometry relative="1" as="geometry" />
        </mxCell>
        <mxCell id="7QBjUaj-Z8u73ffwnyCX-18" style="edgeStyle=orthogonalEdgeStyle;rounded=0;orthogonalLoop=1;jettySize=auto;html=1;exitX=0.5;exitY=1;exitDx=0;exitDy=0;entryX=0.5;entryY=0;entryDx=0;entryDy=0;" edge="1" parent="1" source="7QBjUaj-Z8u73ffwnyCX-2" target="7QBjUaj-Z8u73ffwnyCX-13">
          <mxGeometry relative="1" as="geometry" />
        </mxCell>
        <mxCell id="7QBjUaj-Z8u73ffwnyCX-2" value="创建注册器实例" style="rounded=0;whiteSpace=wrap;html=1;fontSize=21;fontFamily=Consolas, Monaco, &quot;Courier New&quot;, monospace, Consolas, &quot;Courier New&quot;, monospace;fillColor=#ffe6cc;strokeColor=#d79b00;" vertex="1" parent="1">
          <mxGeometry x="-500" y="170" width="120" height="60" as="geometry" />
        </mxCell>
        <mxCell id="7QBjUaj-Z8u73ffwnyCX-4" value="&lt;div style=&quot;background-color: rgb(255, 255, 255); font-family: Consolas, Monaco, &amp;quot;Courier New&amp;quot;, monospace, Consolas, &amp;quot;Courier New&amp;quot;, monospace; font-weight: normal; font-size: 16px; line-height: 22px;&quot;&gt;&lt;div&gt;&lt;span style=&quot;&quot;&gt;register_obj = Register()&lt;/span&gt;&lt;/div&gt;&lt;/div&gt;" style="text;whiteSpace=wrap;html=1;fontColor=#FF0000;" vertex="1" parent="1">
          <mxGeometry x="-370" y="182.5" width="250" height="35" as="geometry" />
        </mxCell>
        <mxCell id="7QBjUaj-Z8u73ffwnyCX-110" style="edgeStyle=orthogonalEdgeStyle;rounded=0;orthogonalLoop=1;jettySize=auto;html=1;exitX=0.5;exitY=1;exitDx=0;exitDy=0;entryX=0;entryY=0.5;entryDx=0;entryDy=0;" edge="1" parent="1" source="7QBjUaj-Z8u73ffwnyCX-5" target="7QBjUaj-Z8u73ffwnyCX-109">
          <mxGeometry relative="1" as="geometry" />
        </mxCell>
        <mxCell id="7QBjUaj-Z8u73ffwnyCX-5" value="&lt;font color=&quot;#ff0000&quot;&gt;@register_obj&lt;/font&gt;&lt;br&gt;定义函数1&lt;br style=&quot;font-size: 17px;&quot;&gt;(使用register_obj进行注册)" style="rounded=0;whiteSpace=wrap;html=1;fontSize=17;fontFamily=Consolas, Monaco, &quot;Courier New&quot;, monospace, Consolas, &quot;Courier New&quot;, monospace;fillColor=#b0e3e6;strokeColor=#0e8088;" vertex="1" parent="1">
          <mxGeometry x="-900" y="319" width="160" height="100" as="geometry" />
        </mxCell>
        <mxCell id="7QBjUaj-Z8u73ffwnyCX-111" style="edgeStyle=orthogonalEdgeStyle;rounded=0;orthogonalLoop=1;jettySize=auto;html=1;exitX=0.5;exitY=1;exitDx=0;exitDy=0;entryX=0.25;entryY=0;entryDx=0;entryDy=0;" edge="1" parent="1" source="7QBjUaj-Z8u73ffwnyCX-10" target="7QBjUaj-Z8u73ffwnyCX-109">
          <mxGeometry relative="1" as="geometry" />
        </mxCell>
        <mxCell id="7QBjUaj-Z8u73ffwnyCX-10" value="&lt;font color=&quot;#ff0000&quot;&gt;@register_obj&lt;/font&gt;&lt;br&gt;定义函数2&lt;br style=&quot;font-size: 17px;&quot;&gt;(使用register_obj进行注册)" style="rounded=0;whiteSpace=wrap;html=1;fontSize=17;fontFamily=Consolas, Monaco, &quot;Courier New&quot;, monospace, Consolas, &quot;Courier New&quot;, monospace;fillColor=#b0e3e6;strokeColor=#0e8088;" vertex="1" parent="1">
          <mxGeometry x="-710" y="319" width="160" height="100" as="geometry" />
        </mxCell>
        <mxCell id="7QBjUaj-Z8u73ffwnyCX-112" style="edgeStyle=orthogonalEdgeStyle;rounded=0;orthogonalLoop=1;jettySize=auto;html=1;exitX=0.5;exitY=1;exitDx=0;exitDy=0;entryX=0.5;entryY=0;entryDx=0;entryDy=0;" edge="1" parent="1" source="7QBjUaj-Z8u73ffwnyCX-11" target="7QBjUaj-Z8u73ffwnyCX-109">
          <mxGeometry relative="1" as="geometry" />
        </mxCell>
        <mxCell id="7QBjUaj-Z8u73ffwnyCX-11" value="&lt;font color=&quot;#ff0000&quot;&gt;@register_obj&lt;/font&gt;&lt;br&gt;定义函数3&lt;br style=&quot;font-size: 17px;&quot;&gt;(使用register_obj进行注册)" style="rounded=0;whiteSpace=wrap;html=1;fontSize=17;fontFamily=Consolas, Monaco, &quot;Courier New&quot;, monospace, Consolas, &quot;Courier New&quot;, monospace;fillColor=#b0e3e6;strokeColor=#0e8088;" vertex="1" parent="1">
          <mxGeometry x="-520" y="319" width="160" height="100" as="geometry" />
        </mxCell>
        <mxCell id="7QBjUaj-Z8u73ffwnyCX-113" style="edgeStyle=orthogonalEdgeStyle;rounded=0;orthogonalLoop=1;jettySize=auto;html=1;exitX=0.5;exitY=1;exitDx=0;exitDy=0;entryX=0.75;entryY=0;entryDx=0;entryDy=0;" edge="1" parent="1" source="7QBjUaj-Z8u73ffwnyCX-12" target="7QBjUaj-Z8u73ffwnyCX-109">
          <mxGeometry relative="1" as="geometry" />
        </mxCell>
        <mxCell id="7QBjUaj-Z8u73ffwnyCX-12" value="&lt;font color=&quot;#ff0000&quot;&gt;@register_obj&lt;/font&gt;&lt;br&gt;定义函数4&lt;br style=&quot;font-size: 17px;&quot;&gt;(使用register_obj进行注册)" style="rounded=0;whiteSpace=wrap;html=1;fontSize=17;fontFamily=Consolas, Monaco, &quot;Courier New&quot;, monospace, Consolas, &quot;Courier New&quot;, monospace;fillColor=#b0e3e6;strokeColor=#0e8088;" vertex="1" parent="1">
          <mxGeometry x="-330" y="319" width="160" height="100" as="geometry" />
        </mxCell>
        <mxCell id="7QBjUaj-Z8u73ffwnyCX-117" style="edgeStyle=orthogonalEdgeStyle;rounded=0;orthogonalLoop=1;jettySize=auto;html=1;exitX=0.5;exitY=1;exitDx=0;exitDy=0;entryX=1;entryY=0.25;entryDx=0;entryDy=0;" edge="1" parent="1" source="7QBjUaj-Z8u73ffwnyCX-13" target="7QBjUaj-Z8u73ffwnyCX-109">
          <mxGeometry relative="1" as="geometry" />
        </mxCell>
        <mxCell id="7QBjUaj-Z8u73ffwnyCX-13" value="&lt;font color=&quot;#ff0000&quot;&gt;@register_obj&lt;/font&gt;&lt;br&gt;定义函数2&lt;br style=&quot;font-size: 17px;&quot;&gt;(使用register_obj进行注册)" style="rounded=0;whiteSpace=wrap;html=1;fontSize=17;fontFamily=Consolas, Monaco, &quot;Courier New&quot;, monospace, Consolas, &quot;Courier New&quot;, monospace;fillColor=#dae8fc;strokeColor=#6c8ebf;gradientColor=#7ea6e0;" vertex="1" parent="1">
          <mxGeometry x="-140" y="319" width="160" height="100" as="geometry" />
        </mxCell>
        <mxCell id="7QBjUaj-Z8u73ffwnyCX-48" style="edgeStyle=orthogonalEdgeStyle;rounded=0;orthogonalLoop=1;jettySize=auto;html=1;exitX=0;exitY=0.5;exitDx=0;exitDy=0;entryX=0.5;entryY=0;entryDx=0;entryDy=0;" edge="1" parent="1" source="7QBjUaj-Z8u73ffwnyCX-19" target="7QBjUaj-Z8u73ffwnyCX-20">
          <mxGeometry relative="1" as="geometry" />
        </mxCell>
        <mxCell id="7QBjUaj-Z8u73ffwnyCX-71" style="edgeStyle=orthogonalEdgeStyle;rounded=0;orthogonalLoop=1;jettySize=auto;html=1;exitX=0.5;exitY=1;exitDx=0;exitDy=0;entryX=0.5;entryY=0;entryDx=0;entryDy=0;" edge="1" parent="1" source="7QBjUaj-Z8u73ffwnyCX-19" target="7QBjUaj-Z8u73ffwnyCX-70">
          <mxGeometry relative="1" as="geometry" />
        </mxCell>
        <mxCell id="7QBjUaj-Z8u73ffwnyCX-125" style="edgeStyle=orthogonalEdgeStyle;rounded=0;orthogonalLoop=1;jettySize=auto;html=1;exitX=1;exitY=0.5;exitDx=0;exitDy=0;entryX=0;entryY=0.5;entryDx=0;entryDy=0;" edge="1" parent="1" source="7QBjUaj-Z8u73ffwnyCX-19" target="7QBjUaj-Z8u73ffwnyCX-23">
          <mxGeometry relative="1" as="geometry" />
        </mxCell>
        <mxCell id="7QBjUaj-Z8u73ffwnyCX-126" style="edgeStyle=orthogonalEdgeStyle;rounded=0;orthogonalLoop=1;jettySize=auto;html=1;exitX=1;exitY=0.5;exitDx=0;exitDy=0;entryX=0;entryY=0.5;entryDx=0;entryDy=0;" edge="1" parent="1" source="7QBjUaj-Z8u73ffwnyCX-19" target="7QBjUaj-Z8u73ffwnyCX-24">
          <mxGeometry relative="1" as="geometry" />
        </mxCell>
        <mxCell id="7QBjUaj-Z8u73ffwnyCX-127" style="edgeStyle=orthogonalEdgeStyle;rounded=0;orthogonalLoop=1;jettySize=auto;html=1;exitX=1;exitY=0.5;exitDx=0;exitDy=0;entryX=0;entryY=0.5;entryDx=0;entryDy=0;" edge="1" parent="1" source="7QBjUaj-Z8u73ffwnyCX-19" target="7QBjUaj-Z8u73ffwnyCX-25">
          <mxGeometry relative="1" as="geometry" />
        </mxCell>
        <mxCell id="7QBjUaj-Z8u73ffwnyCX-128" style="edgeStyle=orthogonalEdgeStyle;rounded=0;orthogonalLoop=1;jettySize=auto;html=1;exitX=1;exitY=0.5;exitDx=0;exitDy=0;entryX=0;entryY=0.5;entryDx=0;entryDy=0;" edge="1" parent="1" source="7QBjUaj-Z8u73ffwnyCX-19" target="7QBjUaj-Z8u73ffwnyCX-26">
          <mxGeometry relative="1" as="geometry" />
        </mxCell>
        <mxCell id="7QBjUaj-Z8u73ffwnyCX-129" style="edgeStyle=orthogonalEdgeStyle;rounded=0;orthogonalLoop=1;jettySize=auto;html=1;exitX=1;exitY=0.5;exitDx=0;exitDy=0;entryX=0;entryY=0.5;entryDx=0;entryDy=0;" edge="1" parent="1" source="7QBjUaj-Z8u73ffwnyCX-19" target="7QBjUaj-Z8u73ffwnyCX-28">
          <mxGeometry relative="1" as="geometry" />
        </mxCell>
        <mxCell id="7QBjUaj-Z8u73ffwnyCX-130" style="edgeStyle=orthogonalEdgeStyle;rounded=0;orthogonalLoop=1;jettySize=auto;html=1;exitX=1;exitY=0.5;exitDx=0;exitDy=0;entryX=0;entryY=0.5;entryDx=0;entryDy=0;" edge="1" parent="1" source="7QBjUaj-Z8u73ffwnyCX-19" target="7QBjUaj-Z8u73ffwnyCX-29">
          <mxGeometry relative="1" as="geometry" />
        </mxCell>
        <mxCell id="7QBjUaj-Z8u73ffwnyCX-131" style="edgeStyle=orthogonalEdgeStyle;rounded=0;orthogonalLoop=1;jettySize=auto;html=1;exitX=1;exitY=0.5;exitDx=0;exitDy=0;entryX=0;entryY=0.5;entryDx=0;entryDy=0;" edge="1" parent="1" source="7QBjUaj-Z8u73ffwnyCX-19" target="7QBjUaj-Z8u73ffwnyCX-30">
          <mxGeometry relative="1" as="geometry" />
        </mxCell>
        <mxCell id="7QBjUaj-Z8u73ffwnyCX-19" value="class Register(dict)" style="rounded=1;whiteSpace=wrap;html=1;fontSize=27;fontFamily=Consolas, Monaco, &quot;Courier New&quot;, monospace, Consolas, &quot;Courier New&quot;, monospace;fillColor=#e1d5e7;strokeColor=#9673a6;" vertex="1" parent="1">
          <mxGeometry x="966" y="2" width="220" height="140" as="geometry" />
        </mxCell>
        <mxCell id="7QBjUaj-Z8u73ffwnyCX-124" style="edgeStyle=orthogonalEdgeStyle;rounded=0;orthogonalLoop=1;jettySize=auto;html=1;" edge="1" parent="1" source="7QBjUaj-Z8u73ffwnyCX-20">
          <mxGeometry relative="1" as="geometry">
            <mxPoint x="610" y="168.25" as="targetPoint" />
          </mxGeometry>
        </mxCell>
        <mxCell id="7QBjUaj-Z8u73ffwnyCX-20" value="__init__(self)" style="rounded=0;whiteSpace=wrap;html=1;fontSize=17;fontFamily=Consolas, Monaco, &quot;Courier New&quot;, monospace, Consolas, &quot;Courier New&quot;, monospace;fillColor=#bac8d3;strokeColor=#23445d;" vertex="1" parent="1">
          <mxGeometry x="696" y="142" width="150" height="52.5" as="geometry" />
        </mxCell>
        <mxCell id="7QBjUaj-Z8u73ffwnyCX-80" style="edgeStyle=orthogonalEdgeStyle;rounded=0;orthogonalLoop=1;jettySize=auto;html=1;exitX=0;exitY=0.5;exitDx=0;exitDy=0;entryX=0.5;entryY=0;entryDx=0;entryDy=0;" edge="1" parent="1" source="7QBjUaj-Z8u73ffwnyCX-22" target="7QBjUaj-Z8u73ffwnyCX-79">
          <mxGeometry relative="1" as="geometry" />
        </mxCell>
        <mxCell id="7QBjUaj-Z8u73ffwnyCX-22" value="register(self, target)" style="rounded=0;whiteSpace=wrap;html=1;fontSize=17;fontFamily=Consolas, Monaco, &quot;Courier New&quot;, monospace, Consolas, &quot;Courier New&quot;, monospace;fillColor=#6a00ff;strokeColor=#3700CC;fontColor=#ffffff;" vertex="1" parent="1">
          <mxGeometry x="1001" y="368.5" width="150" height="52.5" as="geometry" />
        </mxCell>
        <mxCell id="7QBjUaj-Z8u73ffwnyCX-23" value="__setitem__&lt;br&gt;(self, key, value)" style="rounded=0;whiteSpace=wrap;html=1;fontSize=17;fontFamily=Times New Roman;" vertex="1" parent="1">
          <mxGeometry x="1241" y="-94" width="120" height="52.5" as="geometry" />
        </mxCell>
        <mxCell id="7QBjUaj-Z8u73ffwnyCX-24" value="__getitem__&lt;br&gt;(self, key)" style="rounded=0;whiteSpace=wrap;html=1;fontSize=17;fontFamily=Times New Roman;" vertex="1" parent="1">
          <mxGeometry x="1241" y="-24" width="120" height="52.5" as="geometry" />
        </mxCell>
        <mxCell id="7QBjUaj-Z8u73ffwnyCX-25" value="__contains__&lt;br&gt;(self, key)" style="rounded=0;whiteSpace=wrap;html=1;fontSize=17;fontFamily=Times New Roman;" vertex="1" parent="1">
          <mxGeometry x="1241" y="46" width="120" height="52.5" as="geometry" />
        </mxCell>
        <mxCell id="7QBjUaj-Z8u73ffwnyCX-26" value="__str__&lt;br&gt;(self)" style="rounded=0;whiteSpace=wrap;html=1;fontSize=17;fontFamily=Times New Roman;" vertex="1" parent="1">
          <mxGeometry x="1241" y="119.75" width="120" height="52.5" as="geometry" />
        </mxCell>
        <mxCell id="7QBjUaj-Z8u73ffwnyCX-28" value="__keys__&lt;br&gt;(self)" style="rounded=0;whiteSpace=wrap;html=1;fontSize=17;fontFamily=Times New Roman;" vertex="1" parent="1">
          <mxGeometry x="1241" y="186" width="120" height="52.5" as="geometry" />
        </mxCell>
        <mxCell id="7QBjUaj-Z8u73ffwnyCX-29" value="__values__&lt;br&gt;(self)" style="rounded=0;whiteSpace=wrap;html=1;fontSize=17;fontFamily=Times New Roman;" vertex="1" parent="1">
          <mxGeometry x="1241" y="253.5" width="120" height="52.5" as="geometry" />
        </mxCell>
        <mxCell id="7QBjUaj-Z8u73ffwnyCX-30" value="__items__&lt;br&gt;(self)" style="rounded=0;whiteSpace=wrap;html=1;fontSize=17;fontFamily=Times New Roman;" vertex="1" parent="1">
          <mxGeometry x="1241" y="326" width="120" height="52.5" as="geometry" />
        </mxCell>
        <mxCell id="7QBjUaj-Z8u73ffwnyCX-39" value="_dict" style="swimlane;fontStyle=0;childLayout=stackLayout;horizontal=1;startSize=30;horizontalStack=0;resizeParent=1;resizeParentMax=0;resizeLast=0;collapsible=1;marginBottom=0;whiteSpace=wrap;html=1;fillColor=#f8cecc;strokeColor=#b85450;" vertex="1" parent="1">
          <mxGeometry x="460" y="110" width="140" height="120" as="geometry" />
        </mxCell>
        <mxCell id="7QBjUaj-Z8u73ffwnyCX-40" value="key1&lt;span style=&quot;white-space: pre;&quot;&gt;&#x9;&lt;/span&gt;&amp;nbsp; &amp;nbsp; &amp;nbsp; &amp;nbsp; value1" style="text;strokeColor=#6c8ebf;fillColor=#dae8fc;align=center;verticalAlign=middle;spacingLeft=4;spacingRight=4;overflow=hidden;points=[[0,0.5],[1,0.5]];portConstraint=eastwest;rotatable=0;whiteSpace=wrap;html=1;" vertex="1" parent="7QBjUaj-Z8u73ffwnyCX-39">
          <mxGeometry y="30" width="140" height="30" as="geometry" />
        </mxCell>
        <mxCell id="7QBjUaj-Z8u73ffwnyCX-41" value="key2&#x9;&lt;span style=&quot;white-space: pre;&quot;&gt;&#x9;&lt;/span&gt;&amp;nbsp; &amp;nbsp; &amp;nbsp; &amp;nbsp; value2" style="text;strokeColor=#6c8ebf;fillColor=#dae8fc;align=center;verticalAlign=middle;spacingLeft=4;spacingRight=4;overflow=hidden;points=[[0,0.5],[1,0.5]];portConstraint=eastwest;rotatable=0;whiteSpace=wrap;html=1;" vertex="1" parent="7QBjUaj-Z8u73ffwnyCX-39">
          <mxGeometry y="60" width="140" height="30" as="geometry" />
        </mxCell>
        <mxCell id="7QBjUaj-Z8u73ffwnyCX-42" value="&lt;div style=&quot;&quot;&gt;&lt;span style=&quot;background-color: initial;&quot;&gt;key3&amp;nbsp;&lt;/span&gt;&lt;span style=&quot;background-color: initial; border-color: var(--border-color);&quot;&gt;&lt;span style=&quot;white-space: pre;&quot;&gt;&amp;nbsp;&amp;nbsp;&amp;nbsp;&amp;nbsp;&lt;/span&gt;&lt;/span&gt;&lt;span style=&quot;background-color: initial;&quot;&gt;&amp;nbsp; &amp;nbsp; &amp;nbsp; &amp;nbsp; &lt;span style=&quot;white-space: pre;&quot;&gt;&#x9;&lt;/span&gt;value3&lt;/span&gt;&lt;/div&gt;" style="text;strokeColor=#6c8ebf;fillColor=#dae8fc;align=center;verticalAlign=middle;spacingLeft=4;spacingRight=4;overflow=hidden;points=[[0,0.5],[1,0.5]];portConstraint=eastwest;rotatable=0;whiteSpace=wrap;html=1;" vertex="1" parent="7QBjUaj-Z8u73ffwnyCX-39">
          <mxGeometry y="90" width="140" height="30" as="geometry" />
        </mxCell>
        <mxCell id="7QBjUaj-Z8u73ffwnyCX-49" value="add_item(key, value)" style="swimlane;whiteSpace=wrap;html=1;dashed=1;" vertex="1" parent="1">
          <mxGeometry x="1426" y="-87.25" width="690" height="465.75" as="geometry" />
        </mxCell>
        <mxCell id="7QBjUaj-Z8u73ffwnyCX-52" value="&lt;div style=&quot;font-family: Consolas, Monaco, &amp;quot;Courier New&amp;quot;, monospace, Consolas, &amp;quot;Courier New&amp;quot;, monospace; font-weight: normal; font-size: 16px; line-height: 22px;&quot;&gt;&lt;div style=&quot;line-height: 22px;&quot;&gt;&lt;div style=&quot;color: rgb(0, 0, 0);&quot;&gt;def add_item(key, value):&lt;/div&gt;&lt;div style=&quot;&quot;&gt;&amp;nbsp; &amp;nbsp;&amp;nbsp;&lt;span style=&quot;color: rgb(0, 0, 255);&quot;&gt;if&lt;/span&gt; key &lt;span style=&quot;color: rgb(0, 0, 255);&quot;&gt;in&lt;/span&gt; &lt;span style=&quot;color: rgb(0, 0, 255);&quot;&gt;self&lt;/span&gt;._dict: &amp;nbsp;&lt;span style=&quot;color: rgb(0, 128, 0);&quot;&gt;# 如果 key 已经存在&lt;/span&gt;&lt;/div&gt;&lt;div style=&quot;color: rgb(0, 0, 0);&quot;&gt;&amp;nbsp; &amp;nbsp;&amp;nbsp;&amp;nbsp; &amp;nbsp;&amp;nbsp;&lt;span style=&quot;background-color: initial;&quot;&gt;print(&lt;/span&gt;&lt;span style=&quot;background-color: initial; color: rgb(0, 0, 255);&quot;&gt;f&lt;/span&gt;&lt;span style=&quot;background-color: initial; color: rgb(163, 21, 21);&quot;&gt;&quot;&lt;/span&gt;&lt;span style=&quot;background-color: initial;&quot;&gt;\033&lt;/span&gt;&lt;span style=&quot;background-color: initial; color: rgb(163, 21, 21);&quot;&gt;[34m&quot;&lt;/span&gt;&lt;/div&gt;&lt;div style=&quot;color: rgb(0, 0, 0);&quot;&gt;&amp;nbsp; &amp;nbsp; &amp;nbsp; &amp;nbsp; &amp;nbsp; &amp;nbsp; &amp;nbsp;&amp;nbsp;&lt;span style=&quot;background-color: initial; color: rgb(0, 0, 255);&quot;&gt;f&lt;/span&gt;&lt;span style=&quot;background-color: initial; color: rgb(163, 21, 21);&quot;&gt;&quot;WARNING: &lt;/span&gt;&lt;span style=&quot;background-color: initial;&quot;&gt;{value.__name__}&lt;/span&gt;&lt;span style=&quot;background-color: initial; color: rgb(163, 21, 21);&quot;&gt; 已经存在!&quot;&lt;/span&gt;&lt;/div&gt;&lt;div style=&quot;color: rgb(0, 0, 0);&quot;&gt;&amp;nbsp; &amp;nbsp; &amp;nbsp; &amp;nbsp; &amp;nbsp; &amp;nbsp; &amp;nbsp; &lt;span style=&quot;color: #0000ff;&quot;&gt;f&lt;/span&gt;&lt;span style=&quot;color: #a31515;&quot;&gt;&quot;&lt;/span&gt;\033&lt;span style=&quot;color: #a31515;&quot;&gt;[0m&quot;&lt;/span&gt;)&lt;/div&gt;&lt;br&gt;&lt;div style=&quot;color: rgb(0, 0, 0);&quot;&gt;&amp;nbsp; &amp;nbsp;&amp;nbsp;&lt;span style=&quot;color: #008000;&quot;&gt;# 进行注册，将 key 和 value 添加到字典中&lt;/span&gt;&lt;/div&gt;&lt;div style=&quot;color: rgb(0, 0, 0);&quot;&gt;&amp;nbsp; &amp;nbsp;&amp;nbsp;&lt;span style=&quot;color: #0000ff;&quot;&gt;self&lt;/span&gt;[key] = value&lt;/div&gt;&lt;div style=&quot;color: rgb(0, 0, 0);&quot;&gt;&amp;nbsp; &amp;nbsp;&amp;nbsp;&lt;span style=&quot;color: #0000ff;&quot;&gt;return&lt;/span&gt; value&lt;/div&gt;&lt;br&gt;&lt;div style=&quot;color: rgb(0, 0, 0);&quot;&gt;&amp;nbsp; &amp;nbsp;&amp;nbsp;&lt;span style=&quot;color: #008000;&quot;&gt;# 传入的 target 可调用 --&amp;gt; 没有给注册名 --&amp;gt; 传入的函数名或类名作为注册名&lt;/span&gt;&lt;/div&gt;&lt;div style=&quot;color: rgb(0, 0, 0);&quot;&gt;&amp;nbsp; &amp;nbsp;&amp;nbsp;&lt;span style=&quot;color: #0000ff;&quot;&gt;if&lt;/span&gt; callable(target): &amp;nbsp;&lt;span style=&quot;color: #008000;&quot;&gt;# key 为函数/类的名称; value 为函数/类本体&lt;/span&gt;&lt;/div&gt;&lt;div style=&quot;color: rgb(0, 0, 0);&quot;&gt;&amp;nbsp; &amp;nbsp;&amp;nbsp;&amp;nbsp; &amp;nbsp;&amp;nbsp;&lt;span style=&quot;background-color: initial; color: rgb(0, 0, 255);&quot;&gt;return&lt;/span&gt;&lt;span style=&quot;background-color: initial;&quot;&gt; add_item(key=target.__name__, value=target)&lt;/span&gt;&lt;/div&gt;&lt;div style=&quot;color: rgb(0, 0, 0);&quot;&gt;&amp;nbsp; &amp;nbsp;&amp;nbsp;&lt;span style=&quot;color: #0000ff;&quot;&gt;else&lt;/span&gt;: &amp;nbsp;&lt;span style=&quot;color: #008000;&quot;&gt;# 传入的 target 不可调用 --&amp;gt; 抛出异常&lt;/span&gt;&lt;/div&gt;&lt;div style=&quot;color: rgb(0, 0, 0);&quot;&gt;&amp;nbsp; &amp;nbsp;&amp;nbsp; &amp;nbsp;&amp;nbsp;&lt;span style=&quot;background-color: initial;&quot;&gt;&amp;nbsp;&lt;/span&gt;&lt;span style=&quot;background-color: initial; color: rgb(0, 0, 255);&quot;&gt;raise&lt;/span&gt;&lt;span style=&quot;background-color: initial;&quot;&gt; TypeError(&lt;/span&gt;&lt;span style=&quot;background-color: initial; color: rgb(163, 21, 21);&quot;&gt;&quot;\033[31mOnly support callable object, e.g. function or class\033[0m&quot;&lt;/span&gt;&lt;span style=&quot;background-color: initial;&quot;&gt;)&lt;/span&gt;&lt;/div&gt;&lt;div style=&quot;color: rgb(0, 0, 0);&quot;&gt;&amp;nbsp; &amp;nbsp; &amp;nbsp; &amp;nbsp; &lt;/div&gt;&lt;/div&gt;&lt;/div&gt;" style="text;whiteSpace=wrap;html=1;align=left;labelBackgroundColor=none;" vertex="1" parent="7QBjUaj-Z8u73ffwnyCX-49">
          <mxGeometry y="21" width="690" height="430" as="geometry" />
        </mxCell>
        <mxCell id="7QBjUaj-Z8u73ffwnyCX-135" value="&lt;div style=&quot;font-family: Consolas, Monaco, &amp;quot;Courier New&amp;quot;, monospace, Consolas, &amp;quot;Courier New&amp;quot;, monospace; font-weight: normal; line-height: 22px; font-size: 24px;&quot;&gt;&lt;font style=&quot;font-size: 24px;&quot; color=&quot;#ff0080&quot;&gt;key为要注册的函数/类的名字&lt;/font&gt;&lt;/div&gt;&lt;div style=&quot;font-family: Consolas, Monaco, &amp;quot;Courier New&amp;quot;, monospace, Consolas, &amp;quot;Courier New&amp;quot;, monospace; font-weight: normal; line-height: 22px; font-size: 24px;&quot;&gt;&lt;font style=&quot;font-size: 24px;&quot; color=&quot;#ff0080&quot;&gt;&lt;br&gt;&lt;/font&gt;&lt;/div&gt;&lt;div style=&quot;font-family: Consolas, Monaco, &amp;quot;Courier New&amp;quot;, monospace, Consolas, &amp;quot;Courier New&amp;quot;, monospace; font-weight: normal; line-height: 22px; font-size: 24px;&quot;&gt;&lt;font style=&quot;font-size: 24px;&quot; color=&quot;#0066cc&quot;&gt;value为要注册的函数/类的本体&lt;/font&gt;&lt;/div&gt;" style="text;whiteSpace=wrap;html=1;fontFamily=Consolas, Monaco, &quot;Courier New&quot;, monospace, Consolas, &quot;Courier New&quot;, monospace;fontColor=#FF0000;labelBackgroundColor=none;strokeColor=default;dashed=1;shadow=1;glass=0;" vertex="1" parent="7QBjUaj-Z8u73ffwnyCX-49">
          <mxGeometry x="340" y="383" width="350" height="82.75" as="geometry" />
        </mxCell>
        <mxCell id="7QBjUaj-Z8u73ffwnyCX-60" style="edgeStyle=orthogonalEdgeStyle;rounded=0;orthogonalLoop=1;jettySize=auto;html=1;exitX=1;exitY=0.5;exitDx=0;exitDy=0;" edge="1" parent="1">
          <mxGeometry relative="1" as="geometry">
            <mxPoint x="1786" y="527" as="sourcePoint" />
            <mxPoint x="1966" y="527" as="targetPoint" />
          </mxGeometry>
        </mxCell>
        <mxCell id="7QBjUaj-Z8u73ffwnyCX-61" value="已经存在" style="edgeLabel;html=1;align=center;verticalAlign=middle;resizable=0;points=[];fontSize=24;fontFamily=Consolas, Monaco, &quot;Courier New&quot;, monospace, Consolas, &quot;Courier New&quot;, monospace;" vertex="1" connectable="0" parent="7QBjUaj-Z8u73ffwnyCX-60">
          <mxGeometry x="-0.0349" y="-2" relative="1" as="geometry">
            <mxPoint as="offset" />
          </mxGeometry>
        </mxCell>
        <mxCell id="7QBjUaj-Z8u73ffwnyCX-58" style="edgeStyle=orthogonalEdgeStyle;rounded=0;orthogonalLoop=1;jettySize=auto;html=1;entryX=0;entryY=0.5;entryDx=0;entryDy=0;" edge="1" parent="1" source="7QBjUaj-Z8u73ffwnyCX-55">
          <mxGeometry relative="1" as="geometry">
            <mxPoint x="1486" y="527" as="targetPoint" />
          </mxGeometry>
        </mxCell>
        <mxCell id="7QBjUaj-Z8u73ffwnyCX-55" value="" style="ellipse;shape=umlControl;whiteSpace=wrap;html=1;aspect=fixed;fontSize=24;fontFamily=Consolas, Monaco, &quot;Courier New&quot;, monospace, Consolas, &quot;Courier New&quot;, monospace;fillColor=#fa6800;fontColor=#000000;strokeColor=#C73500;rotation=-180;" vertex="1" parent="1">
          <mxGeometry x="1217.88" y="432" width="166.25" height="190" as="geometry" />
        </mxCell>
        <mxCell id="7QBjUaj-Z8u73ffwnyCX-62" value="程序结束" style="rounded=1;whiteSpace=wrap;html=1;fontSize=26;fontFamily=Consolas, Monaco, &quot;Courier New&quot;, monospace, Consolas, &quot;Courier New&quot;, monospace;fillColor=#d5e8d4;strokeColor=#82b366;" vertex="1" parent="1">
          <mxGeometry x="136" y="880" width="120" height="60" as="geometry" />
        </mxCell>
        <mxCell id="7QBjUaj-Z8u73ffwnyCX-106" style="edgeStyle=orthogonalEdgeStyle;rounded=0;orthogonalLoop=1;jettySize=auto;html=1;exitX=0.5;exitY=1;exitDx=0;exitDy=0;" edge="1" parent="1" source="7QBjUaj-Z8u73ffwnyCX-64" target="7QBjUaj-Z8u73ffwnyCX-105">
          <mxGeometry relative="1" as="geometry" />
        </mxCell>
        <mxCell id="7QBjUaj-Z8u73ffwnyCX-64" value="&lt;span style=&quot;border-color: var(--border-color); font-family: Consolas, Monaco, &amp;quot;Courier New&amp;quot;, monospace, Consolas, &amp;quot;Courier New&amp;quot;, monospace; font-size: 16px; text-align: left; background-color: rgb(255, 255, 255); color: rgb(0, 0, 255);&quot;&gt;if&lt;/span&gt;&lt;span style=&quot;border-color: var(--border-color); font-family: Consolas, Monaco, &amp;quot;Courier New&amp;quot;, monospace, Consolas, &amp;quot;Courier New&amp;quot;, monospace; font-size: 16px; text-align: left; background-color: rgb(255, 255, 255);&quot;&gt;&amp;nbsp;key&amp;nbsp;&lt;/span&gt;&lt;span style=&quot;border-color: var(--border-color); font-family: Consolas, Monaco, &amp;quot;Courier New&amp;quot;, monospace, Consolas, &amp;quot;Courier New&amp;quot;, monospace; font-size: 16px; text-align: left; background-color: rgb(255, 255, 255); color: rgb(0, 0, 255);&quot;&gt;in&lt;/span&gt;&lt;span style=&quot;border-color: var(--border-color); font-family: Consolas, Monaco, &amp;quot;Courier New&amp;quot;, monospace, Consolas, &amp;quot;Courier New&amp;quot;, monospace; font-size: 16px; text-align: left; background-color: rgb(255, 255, 255);&quot;&gt;&amp;nbsp;&lt;/span&gt;&lt;span style=&quot;border-color: var(--border-color); font-family: Consolas, Monaco, &amp;quot;Courier New&amp;quot;, monospace, Consolas, &amp;quot;Courier New&amp;quot;, monospace; font-size: 16px; text-align: left; background-color: rgb(255, 255, 255); color: rgb(0, 0, 255);&quot;&gt;self&lt;/span&gt;&lt;span style=&quot;border-color: var(--border-color); font-family: Consolas, Monaco, &amp;quot;Courier New&amp;quot;, monospace, Consolas, &amp;quot;Courier New&amp;quot;, monospace; font-size: 16px; text-align: left; background-color: rgb(255, 255, 255);&quot;&gt;._dict:&lt;br&gt;&lt;/span&gt;&lt;span style=&quot;border-color: var(--border-color); font-family: Consolas, Monaco, &amp;quot;Courier New&amp;quot;, monospace, Consolas, &amp;quot;Courier New&amp;quot;, monospace; font-size: 16px; text-align: left; background-color: rgb(255, 255, 255); color: rgb(0, 128, 0);&quot;&gt;# key 是否已经存在&lt;/span&gt;" style="rhombus;whiteSpace=wrap;html=1;" vertex="1" parent="1">
          <mxGeometry x="1486" y="447" width="300" height="160" as="geometry" />
        </mxCell>
        <mxCell id="7QBjUaj-Z8u73ffwnyCX-107" style="edgeStyle=orthogonalEdgeStyle;rounded=0;orthogonalLoop=1;jettySize=auto;html=1;exitX=0.5;exitY=1;exitDx=0;exitDy=0;entryX=1;entryY=0.5;entryDx=0;entryDy=0;" edge="1" parent="1" source="7QBjUaj-Z8u73ffwnyCX-68" target="7QBjUaj-Z8u73ffwnyCX-105">
          <mxGeometry relative="1" as="geometry" />
        </mxCell>
        <mxCell id="7QBjUaj-Z8u73ffwnyCX-68" value="发出警告" style="rounded=0;whiteSpace=wrap;html=1;fontSize=17;fontFamily=Consolas, Monaco, &quot;Courier New&quot;, monospace, Consolas, &quot;Courier New&quot;, monospace;fillColor=#60a917;strokeColor=#2D7600;fontColor=#ffffff;" vertex="1" parent="1">
          <mxGeometry x="1966" y="500.75" width="150" height="52.5" as="geometry" />
        </mxCell>
        <mxCell id="7QBjUaj-Z8u73ffwnyCX-72" style="edgeStyle=orthogonalEdgeStyle;rounded=0;orthogonalLoop=1;jettySize=auto;html=1;exitX=0.5;exitY=1;exitDx=0;exitDy=0;entryX=0.5;entryY=0;entryDx=0;entryDy=0;" edge="1" parent="1" source="7QBjUaj-Z8u73ffwnyCX-70" target="7QBjUaj-Z8u73ffwnyCX-22">
          <mxGeometry relative="1" as="geometry" />
        </mxCell>
        <mxCell id="7QBjUaj-Z8u73ffwnyCX-78" style="edgeStyle=orthogonalEdgeStyle;rounded=0;orthogonalLoop=1;jettySize=auto;html=1;exitX=0;exitY=0.5;exitDx=0;exitDy=0;entryX=1;entryY=0.5;entryDx=0;entryDy=0;" edge="1" parent="1" source="7QBjUaj-Z8u73ffwnyCX-70" target="7QBjUaj-Z8u73ffwnyCX-77">
          <mxGeometry relative="1" as="geometry" />
        </mxCell>
        <mxCell id="7QBjUaj-Z8u73ffwnyCX-70" value="__call__(self, target)" style="rounded=0;whiteSpace=wrap;html=1;fontSize=17;fontFamily=Consolas, Monaco, &quot;Courier New&quot;, monospace, Consolas, &quot;Courier New&quot;, monospace;fillColor=#1ba1e2;strokeColor=#006EAF;fontColor=#ffffff;" vertex="1" parent="1">
          <mxGeometry x="1001" y="219.5" width="150" height="52.5" as="geometry" />
        </mxCell>
        <mxCell id="7QBjUaj-Z8u73ffwnyCX-75" value="自动调用" style="edgeLabel;html=1;align=center;verticalAlign=middle;resizable=0;points=[];fontSize=24;fontFamily=Consolas, Monaco, &quot;Courier New&quot;, monospace, Consolas, &quot;Courier New&quot;, monospace;" vertex="1" connectable="0" parent="1">
          <mxGeometry x="1639.99652173913" y="658" as="geometry">
            <mxPoint x="-565" y="-339" as="offset" />
          </mxGeometry>
        </mxCell>
        <mxCell id="7QBjUaj-Z8u73ffwnyCX-77" value="&lt;div style=&quot;background-color: rgb(255, 255, 255); font-family: Consolas, Monaco, &amp;quot;Courier New&amp;quot;, monospace, Consolas, &amp;quot;Courier New&amp;quot;, monospace; font-weight: normal; font-size: 16px; line-height: 22px;&quot;&gt;target 为被装饰的函数或类&lt;/div&gt;" style="text;whiteSpace=wrap;html=1;fontFamily=Consolas, Monaco, &quot;Courier New&quot;, monospace, Consolas, &quot;Courier New&quot;, monospace;fontColor=#FF0000;" vertex="1" parent="1">
          <mxGeometry x="736" y="228.25" width="210" height="35" as="geometry" />
        </mxCell>
        <mxCell id="7QBjUaj-Z8u73ffwnyCX-95" style="edgeStyle=orthogonalEdgeStyle;rounded=0;orthogonalLoop=1;jettySize=auto;html=1;exitX=0;exitY=0.5;exitDx=0;exitDy=0;entryX=1;entryY=0.5;entryDx=0;entryDy=0;" edge="1" parent="1" source="7QBjUaj-Z8u73ffwnyCX-79" target="7QBjUaj-Z8u73ffwnyCX-91">
          <mxGeometry relative="1" as="geometry" />
        </mxCell>
        <mxCell id="7QBjUaj-Z8u73ffwnyCX-97" style="edgeStyle=orthogonalEdgeStyle;rounded=0;orthogonalLoop=1;jettySize=auto;html=1;exitX=0.5;exitY=1;exitDx=0;exitDy=0;entryX=0.5;entryY=0;entryDx=0;entryDy=0;" edge="1" parent="1" source="7QBjUaj-Z8u73ffwnyCX-79" target="7QBjUaj-Z8u73ffwnyCX-88">
          <mxGeometry relative="1" as="geometry" />
        </mxCell>
        <mxCell id="7QBjUaj-Z8u73ffwnyCX-79" value="&lt;div style=&quot;text-align: left;&quot;&gt;&lt;font face=&quot;Consolas, Monaco, Courier New, monospace, Consolas, Courier New, monospace&quot; color=&quot;#0000ff&quot;&gt;&lt;span style=&quot;font-size: 16px; background-color: rgb(255, 255, 255);&quot;&gt;target是否可调用（callable）&lt;/span&gt;&lt;/font&gt;&lt;/div&gt;" style="rhombus;whiteSpace=wrap;html=1;" vertex="1" parent="1">
          <mxGeometry x="676" y="447" width="300" height="160" as="geometry" />
        </mxCell>
        <mxCell id="7QBjUaj-Z8u73ffwnyCX-102" style="edgeStyle=orthogonalEdgeStyle;rounded=0;orthogonalLoop=1;jettySize=auto;html=1;exitX=1;exitY=0.5;exitDx=0;exitDy=0;" edge="1" parent="1" source="7QBjUaj-Z8u73ffwnyCX-88">
          <mxGeometry relative="1" as="geometry">
            <mxPoint x="1216" y="522" as="targetPoint" />
            <Array as="points">
              <mxPoint x="1126" y="782" />
              <mxPoint x="1126" y="522" />
            </Array>
          </mxGeometry>
        </mxCell>
        <mxCell id="7QBjUaj-Z8u73ffwnyCX-88" value="&#xa;&lt;span style=&quot;border-color: var(--border-color); font-family: Consolas, Monaco, &amp;quot;Courier New&amp;quot;, monospace, Consolas, &amp;quot;Courier New&amp;quot;, monospace; font-size: 16px; font-style: normal; font-variant-ligatures: normal; font-variant-caps: normal; font-weight: 400; letter-spacing: normal; orphans: 2; text-align: left; text-indent: 0px; text-transform: none; widows: 2; word-spacing: 0px; -webkit-text-stroke-width: 0px; text-decoration-thickness: initial; text-decoration-style: initial; text-decoration-color: initial; color: rgb(0, 0, 255);&quot;&gt;return&lt;/span&gt;&lt;span style=&quot;border-color: var(--border-color); color: rgb(0, 0, 0); font-family: Consolas, Monaco, &amp;quot;Courier New&amp;quot;, monospace, Consolas, &amp;quot;Courier New&amp;quot;, monospace; font-size: 16px; font-style: normal; font-variant-ligatures: normal; font-variant-caps: normal; font-weight: 400; letter-spacing: normal; orphans: 2; text-align: left; text-indent: 0px; text-transform: none; widows: 2; word-spacing: 0px; -webkit-text-stroke-width: 0px; text-decoration-thickness: initial; text-decoration-style: initial; text-decoration-color: initial;&quot;&gt;&lt;span&gt;&amp;nbsp;&lt;/span&gt;add_item(callable_obj.__name__, callable_obj)&lt;/span&gt;&#xa;&#xa;" style="rounded=0;whiteSpace=wrap;html=1;fontSize=17;fontFamily=Consolas, Monaco, &quot;Courier New&quot;, monospace, Consolas, &quot;Courier New&quot;, monospace;fillColor=#fad7ac;strokeColor=#b46504;labelBorderColor=none;labelBackgroundColor=none;" vertex="1" parent="1">
          <mxGeometry x="650" y="732" width="350" height="100" as="geometry" />
        </mxCell>
        <mxCell id="7QBjUaj-Z8u73ffwnyCX-96" style="edgeStyle=orthogonalEdgeStyle;rounded=0;orthogonalLoop=1;jettySize=auto;html=1;exitX=0;exitY=0.5;exitDx=0;exitDy=0;entryX=0.5;entryY=0;entryDx=0;entryDy=0;" edge="1" parent="1" source="7QBjUaj-Z8u73ffwnyCX-91" target="7QBjUaj-Z8u73ffwnyCX-62">
          <mxGeometry relative="1" as="geometry" />
        </mxCell>
        <mxCell id="7QBjUaj-Z8u73ffwnyCX-91" value="抛出异常" style="rounded=0;whiteSpace=wrap;html=1;fontSize=25;fontFamily=Consolas, Monaco, &quot;Courier New&quot;, monospace, Consolas, &quot;Courier New&quot;, monospace;fillColor=#fad9d5;strokeColor=#ae4132;labelBorderColor=none;labelBackgroundColor=none;fontStyle=1" vertex="1" parent="1">
          <mxGeometry x="307.25" y="477" width="167.5" height="100" as="geometry" />
        </mxCell>
        <mxCell id="7QBjUaj-Z8u73ffwnyCX-94" value="可调用" style="edgeLabel;html=1;align=center;verticalAlign=middle;resizable=0;points=[];fontSize=24;fontFamily=Consolas, Monaco, &quot;Courier New&quot;, monospace, Consolas, &quot;Courier New&quot;, monospace;" vertex="1" connectable="0" parent="1">
          <mxGeometry x="823.0047619047618" y="658" as="geometry">
            <mxPoint y="3" as="offset" />
          </mxGeometry>
        </mxCell>
        <mxCell id="7QBjUaj-Z8u73ffwnyCX-98" value="不可调用" style="edgeLabel;html=1;align=center;verticalAlign=middle;resizable=0;points=[];fontSize=24;fontFamily=Consolas, Monaco, &quot;Courier New&quot;, monospace, Consolas, &quot;Courier New&quot;, monospace;" vertex="1" connectable="0" parent="1">
          <mxGeometry x="595.0047619047618" y="533" as="geometry">
            <mxPoint x="-14" y="-6" as="offset" />
          </mxGeometry>
        </mxCell>
        <mxCell id="7QBjUaj-Z8u73ffwnyCX-103" value="&lt;span style=&quot;color: rgb(0, 0, 0); font-family: Consolas, Monaco, &amp;quot;Courier New&amp;quot;, monospace, Consolas, &amp;quot;Courier New&amp;quot;, monospace; font-size: 24px; font-style: normal; font-variant-ligatures: normal; font-variant-caps: normal; font-weight: 400; letter-spacing: normal; orphans: 2; text-indent: 0px; text-transform: none; widows: 2; word-spacing: 0px; -webkit-text-stroke-width: 0px; background-color: rgb(250, 104, 0); text-decoration-thickness: initial; text-decoration-style: initial; text-decoration-color: initial; float: none; display: inline !important;&quot;&gt;add_item&lt;/span&gt;&lt;br style=&quot;border-color: var(--border-color); color: rgb(0, 0, 0); font-family: Consolas, Monaco, &amp;quot;Courier New&amp;quot;, monospace, Consolas, &amp;quot;Courier New&amp;quot;, monospace; font-size: 24px; font-style: normal; font-variant-ligatures: normal; font-variant-caps: normal; font-weight: 400; letter-spacing: normal; orphans: 2; text-indent: 0px; text-transform: none; widows: 2; word-spacing: 0px; -webkit-text-stroke-width: 0px; text-decoration-thickness: initial; text-decoration-style: initial; text-decoration-color: initial;&quot;&gt;&lt;span style=&quot;color: rgb(0, 0, 0); font-family: Consolas, Monaco, &amp;quot;Courier New&amp;quot;, monospace, Consolas, &amp;quot;Courier New&amp;quot;, monospace; font-size: 24px; font-style: normal; font-variant-ligatures: normal; font-variant-caps: normal; font-weight: 400; letter-spacing: normal; orphans: 2; text-indent: 0px; text-transform: none; widows: 2; word-spacing: 0px; -webkit-text-stroke-width: 0px; background-color: rgb(250, 104, 0); text-decoration-thickness: initial; text-decoration-style: initial; text-decoration-color: initial; float: none; display: inline !important;&quot;&gt;(key, value)&lt;/span&gt;" style="text;whiteSpace=wrap;html=1;align=center;" vertex="1" parent="1">
          <mxGeometry x="1206" y="481" width="190" height="80" as="geometry" />
        </mxCell>
        <mxCell id="7QBjUaj-Z8u73ffwnyCX-105" value="&lt;div style=&quot;color: rgb(0, 0, 0); font-family: Consolas, Monaco, &amp;quot;Courier New&amp;quot;, monospace, Consolas, &amp;quot;Courier New&amp;quot;, monospace; font-weight: normal; font-size: 16px; line-height: 22px;&quot;&gt;&lt;div&gt;&lt;span style=&quot;color: #008000;&quot;&gt;# 进行注册，将 key 和 value 添加到字典中&lt;/span&gt;&lt;/div&gt;&lt;div&gt;&lt;span style=&quot;color: #0000ff;&quot;&gt;self&lt;/span&gt;&lt;span style=&quot;color: #000000;&quot;&gt;[key] = value&lt;/span&gt;&lt;/div&gt;&lt;div&gt;&lt;span style=&quot;color: #0000ff;&quot;&gt;return&lt;/span&gt;&lt;span style=&quot;color: #000000;&quot;&gt; value&lt;/span&gt;&lt;/div&gt;&lt;/div&gt;" style="text;whiteSpace=wrap;html=1;strokeColor=#10739e;labelBackgroundColor=none;fillColor=#b1ddf0;" vertex="1" parent="1">
          <mxGeometry x="1466" y="737" width="340" height="90" as="geometry" />
        </mxCell>
        <mxCell id="7QBjUaj-Z8u73ffwnyCX-108" value="不存在" style="edgeLabel;html=1;align=center;verticalAlign=middle;resizable=0;points=[];fontSize=24;fontFamily=Consolas, Monaco, &quot;Courier New&quot;, monospace, Consolas, &quot;Courier New&quot;, monospace;" vertex="1" connectable="0" parent="1">
          <mxGeometry x="1635.9984210526318" y="672.0000000000005" as="geometry">
            <mxPoint x="-1" y="-3" as="offset" />
          </mxGeometry>
        </mxCell>
        <mxCell id="7QBjUaj-Z8u73ffwnyCX-121" style="edgeStyle=orthogonalEdgeStyle;rounded=0;orthogonalLoop=1;jettySize=auto;html=1;exitX=0.5;exitY=1;exitDx=0;exitDy=0;entryX=0.5;entryY=0;entryDx=0;entryDy=0;" edge="1" parent="1" source="7QBjUaj-Z8u73ffwnyCX-109" target="7QBjUaj-Z8u73ffwnyCX-119">
          <mxGeometry relative="1" as="geometry" />
        </mxCell>
        <mxCell id="7QBjUaj-Z8u73ffwnyCX-109" value="class Register(dict)" style="rounded=1;whiteSpace=wrap;html=1;fontSize=27;fontFamily=Consolas, Monaco, &quot;Courier New&quot;, monospace, Consolas, &quot;Courier New&quot;, monospace;fillColor=#e1d5e7;strokeColor=#9673a6;" vertex="1" parent="1">
          <mxGeometry x="-550" y="571.25" width="220" height="140" as="geometry" />
        </mxCell>
        <mxCell id="7QBjUaj-Z8u73ffwnyCX-118" style="edgeStyle=orthogonalEdgeStyle;rounded=0;orthogonalLoop=1;jettySize=auto;html=1;exitX=0.5;exitY=1;exitDx=0;exitDy=0;entryX=1;entryY=0.5;entryDx=0;entryDy=0;" edge="1" parent="1" source="7QBjUaj-Z8u73ffwnyCX-115" target="7QBjUaj-Z8u73ffwnyCX-109">
          <mxGeometry relative="1" as="geometry" />
        </mxCell>
        <mxCell id="7QBjUaj-Z8u73ffwnyCX-132" value="伴有 Try...Except 模块" style="edgeLabel;html=1;align=center;verticalAlign=middle;resizable=0;points=[];fontFamily=Consolas, Monaco, &quot;Courier New&quot;, monospace, Consolas, &quot;Courier New&quot;, monospace;fontSize=24;" vertex="1" connectable="0" parent="7QBjUaj-Z8u73ffwnyCX-118">
          <mxGeometry x="0.352" y="2" relative="1" as="geometry">
            <mxPoint x="-1" as="offset" />
          </mxGeometry>
        </mxCell>
        <mxCell id="7QBjUaj-Z8u73ffwnyCX-115" value="register_obj(obj)&lt;br&gt;尝试注册不可调用对象&lt;br&gt;(使用register_obj进行注册)" style="rounded=0;whiteSpace=wrap;html=1;fontSize=17;fontFamily=Consolas, Monaco, &quot;Courier New&quot;, monospace, Consolas, &quot;Courier New&quot;, monospace;fillColor=#f8cecc;strokeColor=#b85450;gradientColor=#ea6b66;" vertex="1" parent="1">
          <mxGeometry x="52" y="319" width="248" height="100" as="geometry" />
        </mxCell>
        <mxCell id="7QBjUaj-Z8u73ffwnyCX-122" style="edgeStyle=orthogonalEdgeStyle;rounded=0;orthogonalLoop=1;jettySize=auto;html=1;exitX=1;exitY=0.5;exitDx=0;exitDy=0;entryX=0;entryY=0.5;entryDx=0;entryDy=0;" edge="1" parent="1" source="7QBjUaj-Z8u73ffwnyCX-119" target="7QBjUaj-Z8u73ffwnyCX-62">
          <mxGeometry relative="1" as="geometry" />
        </mxCell>
        <mxCell id="7QBjUaj-Z8u73ffwnyCX-119" value="&lt;div style=&quot;color: rgb(0, 0, 0); font-family: Consolas, Monaco, &amp;quot;Courier New&amp;quot;, monospace, Consolas, &amp;quot;Courier New&amp;quot;, monospace; font-weight: normal; font-size: 16px; line-height: 22px;&quot;&gt;&lt;div&gt;&lt;span style=&quot;color: #008000;&quot;&gt;# 查看一个注册器中有哪些元素&lt;/span&gt;&lt;/div&gt;&lt;div&gt;&lt;span style=&quot;color: #000000;&quot;&gt;print(&lt;/span&gt;&lt;span style=&quot;color: #0000ff;&quot;&gt;f&lt;/span&gt;&lt;span style=&quot;color: #a31515;&quot;&gt;&quot;&lt;/span&gt;&lt;span style=&quot;color: #000000;&quot;&gt;\033&lt;/span&gt;&lt;span style=&quot;color: #a31515;&quot;&gt;[34mkey&lt;/span&gt;&lt;span style=&quot;color: #000000;&quot;&gt;\t\t&lt;/span&gt;&lt;span style=&quot;color: #a31515;&quot;&gt;value&lt;/span&gt;&lt;span style=&quot;color: #000000;&quot;&gt;\033&lt;/span&gt;&lt;span style=&quot;color: #a31515;&quot;&gt;[0m&quot;&lt;/span&gt;&lt;span style=&quot;color: #000000;&quot;&gt;)&lt;/span&gt;&lt;/div&gt;&lt;div&gt;&lt;span style=&quot;color: #0000ff;&quot;&gt;&lt;br&gt;&lt;/span&gt;&lt;/div&gt;&lt;div&gt;&lt;span style=&quot;color: #0000ff;&quot;&gt;for&lt;/span&gt;&lt;span style=&quot;color: #000000;&quot;&gt; k, v &lt;/span&gt;&lt;span style=&quot;color: #0000ff;&quot;&gt;in&lt;/span&gt;&lt;span style=&quot;color: #000000;&quot;&gt; register_obj.items(): &amp;nbsp;&lt;/span&gt;&lt;span style=&quot;color: #008000;&quot;&gt;# &amp;lt;=&amp;gt; for k, v in register_obj._dict.items()&lt;/span&gt;&lt;/div&gt;&lt;div&gt;&lt;span style=&quot;color: #000000;&quot;&gt;&amp;nbsp; &amp;nbsp; print(&lt;/span&gt;&lt;span style=&quot;color: #0000ff;&quot;&gt;f&lt;/span&gt;&lt;span style=&quot;color: #a31515;&quot;&gt;&quot;&lt;/span&gt;&lt;span style=&quot;color: #000000;&quot;&gt;{k}&lt;/span&gt;&lt;span style=&quot;color: #a31515;&quot;&gt;: &lt;/span&gt;&lt;span style=&quot;color: #000000;&quot;&gt;\t{v}&lt;/span&gt;&lt;span style=&quot;color: #a31515;&quot;&gt;&quot;&lt;/span&gt;&lt;span style=&quot;color: #000000;&quot;&gt;)&lt;/span&gt;&lt;/div&gt;&lt;/div&gt;" style="text;whiteSpace=wrap;html=1;labelBorderColor=none;labelBackgroundColor=none;fillColor=#cce5ff;strokeColor=#36393d;" vertex="1" parent="1">
          <mxGeometry x="-790" y="845" width="700" height="130" as="geometry" />
        </mxCell>
        <mxCell id="7QBjUaj-Z8u73ffwnyCX-123" value="" style="shape=flexArrow;endArrow=classic;html=1;rounded=0;" edge="1" parent="1">
          <mxGeometry width="50" height="50" relative="1" as="geometry">
            <mxPoint x="1396" y="487" as="sourcePoint" />
            <mxPoint x="1500" y="382" as="targetPoint" />
          </mxGeometry>
        </mxCell>
        <mxCell id="7QBjUaj-Z8u73ffwnyCX-134" value="&lt;div style=&quot;font-family: Consolas, Monaco, &amp;quot;Courier New&amp;quot;, monospace, Consolas, &amp;quot;Courier New&amp;quot;, monospace; font-weight: normal; line-height: 22px; font-size: 24px;&quot;&gt;&lt;font style=&quot;font-size: 24px;&quot; color=&quot;#ff0080&quot;&gt;key为要注册的函数/类的名字&lt;/font&gt;&lt;/div&gt;&lt;div style=&quot;font-family: Consolas, Monaco, &amp;quot;Courier New&amp;quot;, monospace, Consolas, &amp;quot;Courier New&amp;quot;, monospace; font-weight: normal; line-height: 22px; font-size: 24px;&quot;&gt;&lt;font style=&quot;font-size: 24px;&quot; color=&quot;#ff0080&quot;&gt;&lt;br&gt;&lt;/font&gt;&lt;/div&gt;&lt;div style=&quot;font-family: Consolas, Monaco, &amp;quot;Courier New&amp;quot;, monospace, Consolas, &amp;quot;Courier New&amp;quot;, monospace; font-weight: normal; line-height: 22px; font-size: 24px;&quot;&gt;&lt;font style=&quot;font-size: 24px;&quot; color=&quot;#0066cc&quot;&gt;value为要注册的函数/类的本体&lt;/font&gt;&lt;/div&gt;" style="text;whiteSpace=wrap;html=1;fontFamily=Consolas, Monaco, &quot;Courier New&quot;, monospace, Consolas, &quot;Courier New&quot;, monospace;fontColor=#FF0000;labelBackgroundColor=none;strokeColor=default;dashed=1;shadow=1;glass=0;" vertex="1" parent="1">
          <mxGeometry x="1136" y="640" width="350" height="82.75" as="geometry" />
        </mxCell>
        <mxCell id="7QBjUaj-Z8u73ffwnyCX-136" value="&lt;div style=&quot;font-family: Consolas, Monaco, &amp;quot;Courier New&amp;quot;, monospace, Consolas, &amp;quot;Courier New&amp;quot;, monospace; font-weight: normal; line-height: 22px; font-size: 24px;&quot;&gt;&lt;font style=&quot;font-size: 24px;&quot; color=&quot;#ff0080&quot;&gt;key为要注册的函数/类的名字&lt;/font&gt;&lt;/div&gt;&lt;div style=&quot;font-family: Consolas, Monaco, &amp;quot;Courier New&amp;quot;, monospace, Consolas, &amp;quot;Courier New&amp;quot;, monospace; font-weight: normal; line-height: 22px; font-size: 24px;&quot;&gt;&lt;font style=&quot;font-size: 24px;&quot; color=&quot;#ff0080&quot;&gt;&lt;br&gt;&lt;/font&gt;&lt;/div&gt;&lt;div style=&quot;font-family: Consolas, Monaco, &amp;quot;Courier New&amp;quot;, monospace, Consolas, &amp;quot;Courier New&amp;quot;, monospace; font-weight: normal; line-height: 22px; font-size: 24px;&quot;&gt;&lt;font style=&quot;font-size: 24px;&quot; color=&quot;#0066cc&quot;&gt;value为要注册的函数/类的本体&lt;/font&gt;&lt;/div&gt;" style="text;whiteSpace=wrap;html=1;fontFamily=Consolas, Monaco, &quot;Courier New&quot;, monospace, Consolas, &quot;Courier New&quot;, monospace;fontColor=#FF0000;labelBackgroundColor=none;strokeColor=default;dashed=1;shadow=1;glass=0;" vertex="1" parent="1">
          <mxGeometry x="-310" y="750" width="350" height="82.75" as="geometry" />
        </mxCell>
        <mxCell id="7QBjUaj-Z8u73ffwnyCX-137" value="&lt;div style=&quot;font-family: Consolas, Monaco, &amp;quot;Courier New&amp;quot;, monospace, Consolas, &amp;quot;Courier New&amp;quot;, monospace; font-weight: normal; line-height: 22px; font-size: 18px;&quot;&gt;&lt;font style=&quot;font-size: 18px;&quot;&gt;可以添加规则，如果发出警告，不进行注册&lt;/font&gt;&lt;/div&gt;" style="text;whiteSpace=wrap;html=1;fontFamily=Consolas, Monaco, &quot;Courier New&quot;, monospace, Consolas, &quot;Courier New&quot;, monospace;fontColor=#CC00CC;labelBackgroundColor=none;strokeColor=default;dashed=1;shadow=1;glass=0;fontSize=18;" vertex="1" parent="1">
          <mxGeometry x="1766" y="642" width="350" height="30" as="geometry" />
        </mxCell>
      </root>
    </mxGraphModel>
  </diagram>
</mxfile>
